<svg width="24" height="24" viewBox="0 0 24 24" fill="none" xmlns="http://www.w3.org/2000/svg">
<g id="Group">
<path id="Vector" d="M11.5 21.25C6.12614 21.25 1.75 16.8739 1.75 11.5C1.75 6.12614 6.12614 1.75 11.5 1.75C16.8739 1.75 21.25 6.12614 21.25 11.5C21.25 16.8739 16.8739 21.25 11.5 21.25ZM11.5 2.25C6.39349 2.25 2.25 6.40423 2.25 11.5C2.25 16.5958 6.39349 20.75 11.5 20.75C16.6065 20.75 20.75 16.5958 20.75 11.5C20.75 6.40423 16.6065 2.25 11.5 2.25Z" fill="#CFD6DD" stroke="#CFD6DD"/>
<path id="Vector_2" d="M22 22.2499C21.9355 22.2499 21.8748 22.2277 21.8236 22.1764L19.8236 20.1764C19.7288 20.0817 19.7288 19.9182 19.8236 19.8235C19.9183 19.7288 20.0817 19.7288 20.1765 19.8235L22.1765 21.8235C22.2712 21.9182 22.2712 22.0817 22.1765 22.1764C22.1252 22.2277 22.0646 22.2499 22 22.2499Z" fill="#CFD6DD" stroke="#CFD6DD"/>
</g>
</svg>
