<svg width="48" height="48" viewBox="0 0 48 48" fill="none" xmlns="http://www.w3.org/2000/svg">
<rect width="48" height="48" rx="24" fill="url(#paint0_linear_1228_40718)"/>
<path d="M14.8242 16.7957L14.8242 16.7957L14.8253 16.7931C15.0367 16.2557 15.3733 15.7564 15.8531 15.3037L15.8532 15.3038L15.8608 15.2963C16.4253 14.7406 17.0046 14.5 17.59 14.5C17.8 14.5 18.0054 14.5452 18.1836 14.6308L18.1836 14.6308L18.1905 14.634C18.3762 14.7197 18.5339 14.844 18.6589 15.0246L18.6589 15.0246L18.6622 15.0293L20.9822 18.2993L20.9822 18.2993L20.9842 18.3022C21.1461 18.527 21.255 18.7227 21.3272 18.8993L21.3272 18.8993L21.3304 18.907C21.4009 19.0715 21.43 19.2138 21.43 19.32C21.43 19.4594 21.3901 19.6104 21.2929 19.77L21.2887 19.7769L21.2847 19.784C21.1826 19.9646 21.0238 20.1691 20.8064 20.3864L20.8064 20.3864L20.7997 20.3934L20.0426 21.1804C19.8338 21.3912 19.74 21.6505 19.74 21.93C19.74 22.0574 19.7567 22.1684 19.7849 22.2813L19.7918 22.3089L19.8018 22.3356C19.8195 22.3826 19.8372 22.4243 19.8497 22.4539C19.8509 22.4568 19.8521 22.4596 19.8533 22.4623C19.8676 22.4961 19.8727 22.5092 19.8757 22.5181L19.8897 22.5603L19.9111 22.5994C20.1147 22.9727 20.4495 23.4325 20.8983 23.963L20.8983 23.963L20.9019 23.9672C21.357 24.4931 21.8442 25.0311 22.3731 25.5702L22.3731 25.5702L22.3764 25.5736C22.4308 25.6279 22.487 25.6814 22.5381 25.7301L22.5402 25.7321C22.5935 25.7828 22.6415 25.8286 22.6864 25.8736L22.6864 25.8736L22.6909 25.878C22.8937 26.0757 22.8972 26.3957 22.6964 26.5964L20.8464 28.4464C20.6545 28.6384 20.3469 28.6457 20.1382 28.4511C20.0809 28.3939 20.0242 28.3399 19.972 28.29L19.9702 28.2883C19.9149 28.2355 19.8643 28.1872 19.8144 28.1372C18.8021 27.1151 17.8892 26.045 17.0751 24.9269C16.2737 23.8126 15.6341 22.7059 15.1712 21.617C14.7217 20.5258 14.5 19.5016 14.5 18.54C14.5 17.9193 14.6094 17.3327 14.8242 16.7957Z" fill="white" stroke="white"/>
<path d="M33.2726 31.1964L33.2728 31.1964C33.2988 31.1444 33.3199 31.0895 33.3504 31.0083C33.4307 30.782 33.47 30.5501 33.47 30.33C33.47 30.1294 33.4286 29.9452 33.3491 29.7441C33.2812 29.5936 33.1679 29.4545 32.9754 29.3211L32.9705 29.3178L32.9705 29.3177L29.6647 26.9707C29.435 26.8148 29.2376 26.7052 29.0607 26.6328C28.8925 26.564 28.7567 26.54 28.64 26.54C28.4925 26.54 28.3514 26.5789 28.1899 26.6771L28.1759 26.6857L28.1613 26.6933C27.9926 26.7814 27.7933 26.9338 27.5635 27.1636L27.5612 27.1659L27.5612 27.1659L26.8022 27.9149C26.6038 28.1127 26.349 28.23 26.04 28.23C25.9112 28.23 25.7675 28.2156 25.6144 28.1582L25.6036 28.1542L25.593 28.1496C25.5548 28.1332 25.5193 28.1169 25.4919 28.1044C25.4892 28.1032 25.4867 28.102 25.4841 28.1008C25.4525 28.0863 25.436 28.079 25.4243 28.0743L25.4006 28.0648L25.378 28.053C25.2377 27.9795 25.0861 27.8888 24.9253 27.7819L22.3473 30.3598C22.5741 30.5361 22.8076 30.7098 23.0463 30.8873C24.1584 31.6967 25.275 32.3367 26.386 32.8101C27.4858 33.2787 28.509 33.5 29.45 33.5C30.0756 33.5 30.6516 33.3825 31.1816 33.1669L31.2722 33.13H31.2753C31.7826 32.9106 32.2418 32.5756 32.6695 32.1043L33.2726 31.1964ZM33.2726 31.1964L33.2678 31.2065M33.2726 31.1964L33.2678 31.2065M33.2678 31.2065C33.1177 31.5244 32.9247 31.8226 32.6697 32.104L33.2678 31.2065Z" fill="white" stroke="white"/>
<defs>
<linearGradient id="paint0_linear_1228_40718" x1="0" y1="24" x2="48" y2="24" gradientUnits="userSpaceOnUse">
<stop stop-color="#FF8515"/>
<stop offset="1" stop-color="#EB3D00"/>
</linearGradient>
</defs>
</svg>
