<svg width="48" height="48" viewBox="0 0 48 48" fill="none" xmlns="http://www.w3.org/2000/svg">
<rect width="48" height="48" rx="24" fill="url(#paint0_linear_1228_40856)"/>
<g clip-path="url(#clip0_1228_40856)">
<path d="M28.19 14H19.81C16.17 14 14 16.17 14 19.81V28.18C14 31.83 16.17 34 19.81 34H28.18C31.82 34 33.99 31.83 33.99 28.19V19.81C34 16.17 31.83 14 28.19 14ZM31.35 20.84C31.31 20.93 31.26 21.01 31.19 21.08L29.39 22.88C29.24 23.03 29.05 23.1 28.86 23.1C28.67 23.1 28.48 23.03 28.33 22.88C28.04 22.59 28.04 22.11 28.33 21.82L28.85 21.3H28.7C26.6 21.3 24.88 23.01 24.88 25.11V27.07V29.24C24.88 29.65 24.54 29.99 24.13 29.99C23.72 29.99 23.38 29.65 23.38 29.24V27.07V25.11C23.38 23.01 21.67 21.3 19.57 21.3H19.15L19.67 21.82C19.96 22.11 19.96 22.59 19.67 22.88C19.52 23.03 19.33 23.1 19.14 23.1C18.95 23.1 18.76 23.03 18.61 22.88L16.81 21.08C16.52 20.79 16.52 20.31 16.81 20.02L18.61 18.22C18.9 17.93 19.38 17.93 19.67 18.22C19.96 18.51 19.96 18.99 19.67 19.28L19.15 19.8H19.58C21.53 19.8 23.22 20.87 24.14 22.44C25.06 20.87 26.75 19.8 28.71 19.8H28.86L28.34 19.28C28.05 18.99 28.05 18.51 28.34 18.22C28.63 17.93 29.11 17.93 29.4 18.22L31.2 20.02C31.27 20.09 31.32 20.17 31.36 20.26C31.43 20.45 31.43 20.66 31.35 20.84Z" fill="white"/>
</g>
<defs>
<linearGradient id="paint0_linear_1228_40856" x1="0" y1="24" x2="48" y2="24" gradientUnits="userSpaceOnUse">
<stop stop-color="#FF8515"/>
<stop offset="1" stop-color="#EB3D00"/>
</linearGradient>
<clipPath id="clip0_1228_40856">
<rect width="24" height="24" fill="white" transform="translate(12 12)"/>
</clipPath>
</defs>
</svg>
