<svg width="48" height="48" viewBox="0 0 48 48" fill="none" xmlns="http://www.w3.org/2000/svg">
<rect width="48" height="48" rx="24" fill="url(#paint0_linear_1228_40850)"/>
<path d="M33.45 25.64V26.64C33.45 26.91 33.24 27.13 32.96 27.14H31.5C30.97 27.14 30.49 26.75 30.45 26.23C30.42 25.92 30.54 25.63 30.74 25.43C30.92 25.24 31.17 25.14 31.44 25.14H32.95C33.24 25.15 33.45 25.37 33.45 25.64Z" fill="white"/>
<path d="M29.99 24.69C29.49 25.18 29.25 25.91 29.45 26.67C29.71 27.6 30.62 28.19 31.58 28.19H32.45C33 28.19 33.45 28.64 33.45 29.19V29.38C33.45 31.45 31.76 33.14 29.69 33.14H18.21C16.14 33.14 14.45 31.45 14.45 29.38V22.65C14.45 21.42 15.04 20.33 15.95 19.65C16.58 19.17 17.36 18.89 18.21 18.89H29.69C31.76 18.89 33.45 20.58 33.45 22.65V23.09C33.45 23.64 33 24.09 32.45 24.09H31.43C30.87 24.09 30.36 24.31 29.99 24.69Z" fill="white"/>
<path d="M28.2 16.82C28.47 17.09 28.24 17.51 27.86 17.51L20.18 17.5C19.74 17.5 19.51 16.96 19.83 16.65L21.45 15.02C22.82 13.66 25.04 13.66 26.41 15.02L28.16 16.79C28.17 16.8 28.19 16.81 28.2 16.82Z" fill="white"/>
<defs>
<linearGradient id="paint0_linear_1228_40850" x1="0" y1="24" x2="48" y2="24" gradientUnits="userSpaceOnUse">
<stop stop-color="#FF8515"/>
<stop offset="1" stop-color="#EB3D00"/>
</linearGradient>
</defs>
</svg>
