<svg width="48" height="49" viewBox="0 0 48 49" fill="none" xmlns="http://www.w3.org/2000/svg">
<rect y="0.5" width="48" height="48" rx="24" fill="url(#paint0_linear_1228_40844)"/>
<path d="M29.19 17.46C29.19 17.47 29.19 17.47 29.19 17.48C28.94 17.47 28.69 17.46 28.42 17.46H20.72L21.79 16.4C22.77 15.41 23.85 14.5 25.1 14.5C26.36 14.5 27.44 15.41 28.42 16.4L28.98 16.96C29.12 17.09 29.19 17.27 29.19 17.46Z" fill="white"/>
<path d="M32.84 25.67C33.23 25.67 33.54 25.35 33.54 24.95V24.07C33.54 20.14 32.34 18.95 28.42 18.95H22.12H19.58C15.66 18.95 14.46 20.15 14.46 24.07V24.5C14.46 24.9 14.77 25.21 15.16 25.21C16 25.21 16.67 25.89 16.67 26.72C16.67 27.55 16 28.24 15.16 28.24C14.77 28.24 14.46 28.55 14.46 28.95V29.38C14.46 33.31 15.66 34.5 19.58 34.5H22.11H28.41C32.33 34.5 33.53 33.3 33.53 29.38C33.53 28.99 33.22 28.67 32.83 28.67C31.99 28.67 31.32 28 31.32 27.17C31.33 26.34 32 25.67 32.84 25.67ZM22.82 31.36C22.82 31.75 22.5 32.07 22.11 32.07C21.72 32.07 21.4 31.75 21.4 31.36V28.68C21.4 28.29 21.72 27.97 22.11 27.97C22.5 27.97 22.82 28.29 22.82 28.68V31.36ZM22.82 24.77C22.82 25.16 22.5 25.48 22.11 25.48C21.72 25.48 21.4 25.16 21.4 24.77V22.09C21.4 21.7 21.72 21.38 22.11 21.38C22.5 21.38 22.82 21.7 22.82 22.09V24.77Z" fill="white"/>
<defs>
<linearGradient id="paint0_linear_1228_40844" x1="0" y1="24.5" x2="48" y2="24.5" gradientUnits="userSpaceOnUse">
<stop stop-color="#FF8515"/>
<stop offset="1" stop-color="#EB3D00"/>
</linearGradient>
</defs>
</svg>
