<svg width="25" height="18" viewBox="0 0 25 18" fill="none" xmlns="http://www.w3.org/2000/svg">
<g id="Logo">
<path id="Exclude" fill-rule="evenodd" clip-rule="evenodd" d="M23.3895 1.83407C23.7618 2.20883 24.0292 2.67482 24.1649 3.18541C24.6667 5.06996 24.6667 8.99996 24.6667 8.99996C24.6667 8.99996 24.6667 12.93 24.1649 14.8145C24.0292 15.3251 23.7618 15.7911 23.3895 16.1658C23.0171 16.5406 22.5528 16.811 22.0431 16.95C20.1667 17.4545 12.6667 17.4545 12.6667 17.4545C12.6667 17.4545 5.16675 17.4545 3.29038 16.95C2.78068 16.811 2.31641 16.5406 1.94404 16.1658C1.57166 15.7911 1.30425 15.3251 1.16857 14.8145C0.666748 12.93 0.666748 8.99996 0.666748 8.99996C0.666748 8.99996 0.666748 5.06996 1.16857 3.18541C1.30425 2.67482 1.57166 2.20883 1.94404 1.83407C2.31641 1.4593 2.78068 1.18891 3.29038 1.04996C5.16675 0.54541 12.6667 0.54541 12.6667 0.54541C12.6667 0.54541 20.1667 0.54541 22.0431 1.04996C22.5528 1.18891 23.0171 1.4593 23.3895 1.83407ZM10.2122 5.4314V12.5687L16.4849 9.00003L10.2122 5.4314Z" fill="white"/>
</g>
</svg>
