<svg width="25" height="24" viewBox="0 0 25 24" fill="none" xmlns="http://www.w3.org/2000/svg">
<g id="Logo">
<g id="Logo 11">
<path id="Exclude" fill-rule="evenodd" clip-rule="evenodd" d="M2.44038 0C1.46106 0 0.666626 0.77025 0.666626 1.71919V22.2814C0.666626 23.2304 1.46116 24 2.44038 24H22.8929C23.8726 24 24.6666 23.2303 24.6666 22.2811V1.71919C24.6666 0.77025 23.8726 0 22.8929 0H2.44038ZM7.95992 9.2801V20.085H4.36855V9.2801H7.95992ZM8.19664 5.93856C8.19664 6.97544 7.41711 7.80513 6.16499 7.80513L6.1647 7.80503H6.14145C4.93611 7.80503 4.15686 6.97535 4.15686 5.93847C4.15686 4.87806 4.95964 4.07153 6.1888 4.07153C7.41711 4.07153 8.1732 4.87806 8.19664 5.93856ZM13.5389 20.085H9.9478L9.9477 20.0853C9.9477 20.0853 9.99486 10.2941 9.94799 9.28047H13.5392V10.8099C14.0166 10.0738 14.871 9.02678 16.7759 9.02678C19.1387 9.02678 20.9102 10.5711 20.9102 13.8898V20.085H17.3192V14.3053C17.3192 12.8526 16.7991 11.8619 15.5 11.8619C14.5076 11.8619 13.9167 12.53 13.6572 13.1755C13.5623 13.4058 13.5389 13.7292 13.5389 14.0517V20.085Z" fill="white"/>
</g>
</g>
</svg>
