<?xml version="1.0" encoding="UTF-8"?>
<!DOCTYPE svg PUBLIC "-//W3C//DTD SVG 1.1//EN" "http://www.w3.org/Graphics/SVG/1.1/DTD/svg11.dtd">
<!-- Creator: CorelDRAW X7 -->
<svg xmlns="http://www.w3.org/2000/svg" xml:space="preserve" width="23.7066mm" height="23.7066mm" version="1.1" style="shape-rendering:geometricPrecision; text-rendering:geometricPrecision; image-rendering:optimizeQuality; fill-rule:evenodd; clip-rule:evenodd"
viewBox="0 0 2371 2371"
 xmlns:xlink="http://www.w3.org/1999/xlink">
 <defs>
  <style type="text/css">
   <![CDATA[
    .fil1 {fill:#FEFEFE}
    .fil0 {fill:white}
   ]]>
  </style>
 </defs>
 <g id="Layer_x0020_1">
  <metadata id="CorelCorpID_0Corel-Layer"/>
  <path class="fil0" d="M1516 2370l-661 0c-599,0 -855,-255 -855,-854l0 -661c0,-599 256,-855 855,-855l661 0c599,0 854,256 854,855l0 661c0,599 -255,854 -854,854zm-661 -2204c-509,0 -689,180 -689,689l0 661c0,508 180,689 689,689l661 0c508,0 689,-181 689,-689l0 -661c0,-509 -181,-689 -689,-689l-661 0z"/>
  <rect class="fil1" x="686" y="593" width="305" height="1185" rx="152" ry="216"/>
  <rect class="fil1" x="1405" y="593" width="305" height="1185" rx="152" ry="216"/>
 </g>
</svg>
