<svg width="25" height="24" viewBox="0 0 25 24" fill="none" xmlns="http://www.w3.org/2000/svg">
<g id="Social platforms logos" clip-path="url(#clip0_1292_48336)">
<path id="Logo" d="M8.21427 21.7508C17.2709 21.7508 22.2245 14.2474 22.2245 7.74052C22.2245 7.5274 22.2245 7.31524 22.2101 7.10404C23.1738 6.407 24.0056 5.54392 24.6667 4.55524C23.7681 4.95364 22.8148 5.2148 21.8386 5.32996C22.8666 4.71465 23.6359 3.74674 24.0034 2.60644C23.0368 3.18005 21.9794 3.58427 20.8767 3.80164C20.1343 3.01222 19.1524 2.48948 18.0829 2.31432C17.0135 2.13917 15.9162 2.32135 14.9607 2.83269C14.0053 3.34403 13.245 4.15601 12.7975 5.14299C12.35 6.12996 12.2403 7.23691 12.4853 8.29252C10.5276 8.19432 8.6125 7.68555 6.8642 6.79924C5.1159 5.91294 3.57351 4.6689 2.33715 3.14788C1.70748 4.23188 1.51462 5.51511 1.79785 6.7363C2.08107 7.9575 2.81909 9.02483 3.86163 9.721C3.07798 9.69804 2.3114 9.48663 1.62675 9.10468V9.16708C1.62706 10.3039 2.0206 11.4057 2.74062 12.2854C3.46064 13.1652 4.46281 13.7689 5.57715 13.994C4.85223 14.1917 4.09162 14.2206 3.35379 14.0784C3.66856 15.0568 4.28118 15.9123 5.10599 16.5254C5.9308 17.1385 6.92657 17.4785 7.95411 17.498C6.93319 18.3004 5.76406 18.8938 4.51362 19.244C3.26318 19.5942 1.95596 19.6944 0.666748 19.5389C2.91858 20.9839 5.53867 21.7504 8.21427 21.7469" fill="white"/>
</g>
<defs>
<clipPath id="clip0_1292_48336">
<rect width="24" height="24" fill="white" transform="translate(0.666748)"/>
</clipPath>
</defs>
</svg>
