<svg width="100" height="100" viewBox="0 0 100 100" fill="none" xmlns="http://www.w3.org/2000/svg">
<path d="M62.5 94.7917H37.5C14.875 94.7917 5.20837 85.125 5.20837 62.5V37.5C5.20837 14.875 14.875 5.20834 37.5 5.20834H62.5C85.125 5.20834 94.7917 14.875 94.7917 37.5V62.5C94.7917 85.125 85.125 94.7917 62.5 94.7917ZM37.5 11.4583C18.2917 11.4583 11.4584 18.2917 11.4584 37.5V62.5C11.4584 81.7083 18.2917 88.5417 37.5 88.5417H62.5C81.7084 88.5417 88.5417 81.7083 88.5417 62.5V37.5C88.5417 18.2917 81.7084 11.4583 62.5 11.4583H37.5Z" fill="white"/>
<path d="M44.8333 68.2083C43.0833 68.2083 41.4583 67.7917 40 66.9583C36.6667 65.0417 34.75 61.125 34.75 56.1667V43.8333C34.75 38.9167 36.6667 34.9583 40 33.0417C43.3333 31.125 47.6667 31.4167 51.9583 33.9167L62.6667 40.0833C66.9167 42.5417 69.375 46.1667 69.375 50C69.375 53.8333 66.9167 57.4583 62.6667 59.9167L51.9583 66.0833C49.5417 67.5 47.0833 68.2083 44.8333 68.2083ZM44.875 38.0417C44.2083 38.0417 43.625 38.1667 43.1667 38.4583C41.8333 39.25 41.0417 41.2083 41.0417 43.8333V56.1667C41.0417 58.7917 41.7917 60.75 43.1667 61.5417C44.5 62.3333 46.5833 62 48.875 60.6667L59.5833 54.5C61.875 53.1667 63.1667 51.5417 63.1667 50C63.1667 48.4583 61.875 46.7917 59.5833 45.5L48.875 39.3333C47.375 38.4583 46 38.0417 44.875 38.0417Z" fill="white"/>
</svg>
