<?xml version="1.0" standalone="no"?>
<!DOCTYPE svg PUBLIC "-//W3C//DTD SVG 20010904//EN"
 "http://www.w3.org/TR/2001/REC-SVG-20010904/DTD/svg10.dtd">
<svg version="1.0" xmlns="http://www.w3.org/2000/svg"
 width="169.000000pt" height="32.000000pt" viewBox="0 0 169.000000 32.000000"
 preserveAspectRatio="xMidYMid meet">

<g transform="translate(0.000000,32.000000) scale(0.100000,-0.100000)"
fill="#000000" stroke="none">
<path d="M590 265 c0 -30 5 -55 10 -55 6 0 10 14 10 30 0 17 4 30 8 30 5 0 18
-13 30 -30 13 -16 27 -30 32 -30 6 0 10 25 10 55 0 61 -17 76 -22 18 l-3 -37
-25 37 c-36 53 -50 48 -50 -18z"/>
<path d="M723 304 c-3 -9 -2 -33 3 -53 7 -29 14 -37 37 -39 41 -5 57 14 57 64
0 56 -18 57 -22 2 -2 -36 -7 -44 -25 -46 -21 -3 -23 1 -23 42 0 45 -15 61 -27
30z"/>
<path d="M860 305 c-18 -22 -6 -42 30 -50 42 -9 33 -31 -11 -27 -26 3 -31 1
-23 -8 6 -6 27 -10 45 -8 28 2 34 7 34 27 0 19 -7 27 -32 33 -40 10 -44 30 -5
28 41 -3 49 -1 32 10 -22 14 -56 12 -70 -5z"/>
<path d="M981 268 c-22 -52 -20 -77 3 -45 7 9 21 17 31 17 10 0 24 -8 31 -17
23 -32 25 -7 3 45 -12 29 -27 52 -34 52 -7 0 -22 -23 -34 -52z m49 -10 c0 -5
-7 -8 -15 -8 -17 0 -18 2 -9 25 5 13 8 14 15 3 5 -7 9 -16 9 -20z"/>
<path d="M1100 265 c0 -30 5 -55 10 -55 6 0 10 17 10 37 l0 38 27 -38 c38 -54
53 -49 53 18 0 30 -4 55 -10 55 -5 0 -10 -17 -10 -37 l-1 -38 -32 38 c-18 20
-35 37 -39 37 -5 0 -8 -25 -8 -55z"/>
<path d="M1225 310 c-3 -5 3 -10 14 -10 18 0 21 -6 21 -45 0 -25 5 -45 10 -45
6 0 10 20 10 45 0 38 3 45 20 45 11 0 20 5 20 10 0 6 -20 10 -44 10 -25 0 -48
-4 -51 -10z"/>
<path d="M1341 268 c-22 -52 -20 -77 3 -45 7 9 21 17 31 17 10 0 24 -8 31 -17
22 -31 22 -10 1 45 -11 28 -25 52 -32 52 -7 0 -22 -23 -34 -52z m49 -10 c0 -5
-7 -8 -15 -8 -17 0 -18 2 -9 25 5 13 8 14 15 3 5 -7 9 -16 9 -20z"/>
<path d="M1460 265 c0 -30 5 -55 10 -55 6 0 10 9 10 20 0 11 6 20 14 20 8 0
18 -9 21 -20 3 -11 13 -20 21 -20 12 0 12 4 4 20 -8 14 -7 25 2 39 17 28 -5
51 -48 51 l-34 0 0 -55z m65 20 c0 -5 -10 -11 -22 -13 -16 -2 -23 2 -23 13 0
11 7 15 23 13 12 -2 22 -7 22 -13z"/>
<path d="M1612 303 c-6 -10 -17 -35 -25 -55 -14 -33 -14 -38 -1 -38 7 0 14 7
14 15 0 21 47 19 59 -2 19 -35 21 -4 3 43 -21 53 -36 64 -50 37z m28 -39 c0
-8 -4 -14 -10 -14 -5 0 -10 9 -10 21 0 11 5 17 10 14 6 -3 10 -13 10 -21z"/>
<path d="M5 301 c-9 -15 44 -223 62 -243 21 -23 49 -23 59 0 4 9 19 57 33 106
14 49 31 91 37 93 8 3 13 -26 16 -87 5 -102 25 -143 71 -147 15 -1 27 -1 27 0
0 2 -9 20 -20 42 -14 27 -20 59 -20 102 0 73 -20 103 -69 103 -47 0 -61 -10
-79 -54 l-16 -41 -8 50 c-5 33 -14 56 -29 68 -23 19 -54 23 -64 8z"/>
<path d="M420 280 c-16 -10 17 -41 35 -34 14 6 18 15 13 31 -4 10 -35 11 -48
3z"/>
<path d="M342 184 c-25 -17 -29 -46 -8 -63 16 -13 25 -2 46 53 11 31 -3 35
-38 10z"/>
<path d="M439 187 c7 -9 8 -24 2 -43 -9 -33 1 -76 13 -56 28 45 22 112 -10
112 -13 0 -14 -3 -5 -13z"/>
<path d="M602 158 c-30 -30 11 -85 44 -57 19 16 18 39 -2 39 -10 0 -14 -6 -10
-15 6 -17 -19 -21 -29 -5 -10 16 14 40 32 33 11 -4 14 -2 9 5 -9 15 -29 15
-44 0z"/>
<path d="M692 133 c-2 -40 0 -43 23 -43 14 0 25 5 25 10 0 6 -9 10 -19 10 -15
0 -21 8 -24 33 -3 28 -4 26 -5 -10z"/>
<path d="M772 158 c-18 -18 -14 -46 7 -58 38 -20 71 13 51 51 -12 21 -40 25
-58 7z m48 -29 c0 -12 -7 -19 -19 -19 -26 0 -36 17 -21 35 15 18 40 8 40 -16z"/>
<path d="M860 136 c0 -39 11 -50 40 -41 15 5 19 14 17 38 -2 27 -7 33 -30 35
-25 3 -27 1 -27 -32z m45 14 c3 -5 -1 -10 -9 -10 -9 0 -16 5 -16 10 0 6 4 10
9 10 6 0 13 -4 16 -10z m0 -30 c3 -5 -1 -10 -9 -10 -9 0 -16 5 -16 10 0 6 4
10 9 10 6 0 13 -4 16 -10z"/>
<path d="M955 134 c-18 -44 -19 -52 -3 -36 15 15 48 16 48 0 0 -6 3 -9 6 -5 8
8 -15 77 -27 77 -5 0 -16 -16 -24 -36z"/>
<path d="M1042 133 c-2 -40 0 -43 23 -43 14 0 25 5 25 10 0 6 -9 10 -19 10
-15 0 -21 8 -24 33 -3 28 -4 26 -5 -10z"/>
<path d="M1193 130 c0 -25 2 -35 4 -22 2 12 2 32 0 45 -2 12 -4 2 -4 -23z"/>
<path d="M1231 128 c1 -37 2 -39 8 -14 l6 28 19 -21 c11 -12 23 -21 28 -21 11
0 10 58 -2 65 -6 3 -10 -4 -10 -17 l-1 -23 -18 23 c-27 31 -31 28 -30 -20z"/>
<path d="M1330 155 c-14 -17 -5 -51 15 -59 35 -13 63 21 45 55 -13 23 -43 25
-60 4z m48 -23 c3 -17 -2 -22 -17 -22 -14 0 -21 6 -21 18 0 38 33 41 38 4z"/>
<path d="M1427 130 c9 -22 20 -40 25 -40 4 0 8 2 8 4 0 2 7 20 15 40 8 20 11
36 6 36 -5 0 -12 -11 -15 -25 -4 -14 -10 -25 -15 -25 -5 0 -12 11 -15 25 -4
14 -10 25 -15 25 -5 0 -2 -18 6 -40z"/>
<path d="M1505 134 c-18 -44 -19 -52 -3 -36 15 15 48 16 48 0 0 -6 3 -9 6 -5
8 8 -15 77 -27 77 -5 0 -16 -16 -24 -36z m30 6 c3 -5 1 -10 -4 -10 -6 0 -11 5
-11 10 0 6 2 10 4 10 3 0 8 -4 11 -10z"/>
<path d="M1597 163 c-14 -13 -6 -31 16 -38 l22 -7 -25 -7 c-22 -6 -23 -8 -6
-14 25 -10 50 11 35 29 -6 8 -18 14 -25 14 -8 0 -14 5 -14 11 0 6 9 8 20 4 11
-4 20 -2 20 4 0 12 -33 15 -43 4z"/>
<path d="M1673 130 c0 -25 2 -35 4 -22 2 12 2 32 0 45 -2 12 -4 2 -4 -23z"/>
<path d="M702 25 c0 -17 2 -22 5 -12 2 9 2 23 0 30 -3 6 -5 -1 -5 -18z"/>
<path d="M752 30 c0 -14 2 -19 5 -12 2 6 2 18 0 25 -3 6 -5 1 -5 -13z"/>
<path d="M784 35 c-8 -19 4 -35 24 -34 14 1 14 2 -1 6 -13 3 -17 11 -14 24 6
22 -1 26 -9 4z"/>
<path d="M860 40 c-8 -5 -12 -12 -9 -15 4 -3 12 1 19 10 14 17 11 19 -10 5z"/>
<path d="M911 28 c-1 -20 4 -28 17 -28 13 0 14 2 4 9 -8 4 -13 11 -12 15 1 4
-1 12 -3 19 -3 6 -6 0 -6 -15z"/>
<path d="M982 25 c0 -17 2 -22 5 -12 2 9 2 23 0 30 -3 6 -5 -1 -5 -18z"/>
<path d="M1060 29 c0 -17 3 -20 9 -10 7 11 11 10 20 -5 6 -11 11 -14 11 -8 0
6 -9 19 -20 29 -19 18 -20 17 -20 -6z"/>
<path d="M1361 28 c-1 -21 4 -28 17 -28 11 0 13 3 6 8 -7 4 -14 16 -17 27 -4
15 -5 14 -6 -7z"/>
<path d="M1411 34 c0 -11 3 -14 6 -6 3 7 2 16 -1 19 -3 4 -6 -2 -5 -13z"/>
<path d="M1451 33 c-1 -12 -9 -24 -18 -26 -17 -4 -17 -5 0 -6 19 -1 32 21 24
41 -3 7 -6 3 -6 -9z"/>
<path d="M1542 25 c0 -17 2 -22 5 -12 2 9 2 23 0 30 -3 6 -5 -1 -5 -18z"/>
<path d="M1574 35 c-11 -27 25 -50 40 -26 4 5 -4 7 -16 3 -18 -4 -20 -2 -16
16 7 25 0 30 -8 7z"/>
<path d="M1677 30 c-3 -11 -1 -23 4 -26 5 -3 9 6 9 20 0 31 -6 34 -13 6z"/>
<path d="M598 3 c7 -3 16 -2 19 1 4 3 -2 6 -13 5 -11 0 -14 -3 -6 -6z"/>
<path d="M1238 3 c7 -3 16 -2 19 1 4 3 -2 6 -13 5 -11 0 -14 -3 -6 -6z"/>
</g>
</svg>
