<svg width="51" height="32" viewBox="0 0 51 32" fill="none" xmlns="http://www.w3.org/2000/svg">
<g id="Logo NGI">
<g id="Group">
<g id="Group_2">
<g id="Vector">
<path fill-rule="evenodd" clip-rule="evenodd" d="M21.9554 7.92211C22.2514 10.1067 21.8685 13.3804 21.9554 15.8399C22.017 17.9798 22.3891 20.5178 22.9871 22.5738C22.9992 22.6154 23.1244 23.0669 23.1605 23.0848C23.1741 23.3169 23.8305 24.8994 24.0084 25.2541L24.769 26.6514C24.9806 27.0084 25.2994 27.4739 25.5536 27.8139L26.1293 28.5188C26.1805 28.57 26.1902 28.5863 26.2357 28.6406C26.3966 28.8332 27.0159 29.4111 27.238 29.5855C27.5142 29.8024 27.8245 30.0308 28.1305 30.2018C28.4061 30.3557 28.6988 30.5098 28.9995 30.6308C29.4989 30.8319 30.708 31.8837 30.9832 31.0677C32.0074 27.9851 30.0712 27.3502 29.2825 26.1652C24.7502 19.3477 30.7571 6.79321 22.3723 4.98979C21.6832 4.91456 20.9015 4.70818 20.1785 5.42633C20.7375 5.48396 21.9479 7.08521 21.9554 7.92211Z" fill="url(#paint0_linear_1228_40452)"/>
<path fill-rule="evenodd" clip-rule="evenodd" d="M21.9554 7.92211C22.2514 10.1067 21.8685 13.3804 21.9554 15.8399C22.017 17.9798 22.3891 20.5178 22.9871 22.5738C22.9992 22.6154 23.1244 23.0669 23.1605 23.0848C23.1741 23.3169 23.8305 24.8994 24.0084 25.2541L24.769 26.6514C24.9806 27.0084 25.2994 27.4739 25.5536 27.8139L26.1293 28.5188C26.1805 28.57 26.1902 28.5863 26.2357 28.6406C26.3966 28.8332 27.0159 29.4111 27.238 29.5855C27.5142 29.8024 27.8245 30.0308 28.1305 30.2018C28.4061 30.3557 28.6988 30.5098 28.9995 30.6308C29.4989 30.8319 30.708 31.8837 30.9832 31.0677C32.0074 27.9851 30.0712 27.3502 29.2825 26.1652C24.7502 19.3477 30.7571 6.79321 22.3723 4.98979C21.6832 4.91456 20.9015 4.70818 20.1785 5.42633C20.7375 5.48396 21.9479 7.08521 21.9554 7.92211Z" fill="#262626" fill-opacity="0.2"/>
</g>
<path id="Vector_2" fill-rule="evenodd" clip-rule="evenodd" d="M21.0366 8.42931C21.3346 14.7737 19.131 24.804 25.8642 30.0928C26.6676 30.7238 30.8578 32.5436 31.0699 30.7889C20.4572 22.6322 29.5646 8.46245 22.3716 4.98975C21.6988 5.06878 21.1498 5.04259 19.9324 5.92009C20.4915 5.97767 20.7895 6.68043 21.0366 8.42931Z" fill="url(#paint1_linear_1228_40452)"/>
</g>
<g id="Group_3">
<path id="Vector_3" fill-rule="evenodd" clip-rule="evenodd" d="M13.999 23.5742L14.1469 23.0378C14.2014 22.8473 14.2445 22.6746 14.2993 22.4884L15.1548 19.4844C15.1827 19.3885 15.2093 19.3135 15.2341 19.213L15.3915 18.6686C15.5343 18.2301 15.7313 17.4998 15.8646 17.0366C16.1773 15.9502 16.5055 14.855 16.8022 13.7639L17.4178 11.5725C17.7098 10.5714 18.4214 8.04154 18.7823 7.32334C19.3102 6.10887 20.8285 5.07222 22.3722 4.98969C20.0801 4.32515 17.8855 4.6293 16.7158 4.99365C16.6592 5.01124 16.608 5.0307 16.5566 5.04495C16.3524 5.10129 16.1643 5.17539 15.9738 5.25164C15.6011 5.4007 15.252 5.5812 14.9102 5.78445C14.7408 5.88514 14.5888 5.99232 14.43 6.11123C14.2733 6.22865 14.1393 6.33784 14.0037 6.47419C13.9304 6.54793 13.8634 6.58425 13.7937 6.66776L13.6028 6.88037C13.3619 7.18884 13.1415 7.48424 12.9639 7.83793C12.7813 8.20156 12.6453 8.599 12.5143 8.98465C12.3774 9.38728 12.2376 9.76402 12.0976 10.1643C12.0619 10.2665 12.0325 10.3604 12.0013 10.4541C11.6347 11.5543 11.2354 12.6434 10.8962 13.7522C10.773 14.1546 10.612 14.5442 10.4977 14.9502C10.3697 15.4056 10.1656 15.9791 10.0101 16.4449C9.91173 16.7398 9.52644 17.8933 9.45703 18.1012C9.55901 24.299 12.3961 25.4147 13.5004 25.5257L13.999 23.5742Z" fill="url(#paint2_linear_1228_40452)"/>
<path id="Vector_4" fill-rule="evenodd" clip-rule="evenodd" d="M12.1356 23.315L12.2836 22.7786C12.338 22.5881 12.3812 22.4153 12.4359 22.2292L13.2914 19.2252C13.3193 19.1293 13.3459 19.0543 13.3707 18.9538L13.5281 18.4094C13.6709 17.9709 13.8679 17.2405 14.0012 16.7774C14.314 15.691 14.6421 14.5958 14.9388 13.5047L15.5544 11.3133C15.8464 10.3122 16.558 7.78232 16.919 7.06412C18.6085 4.3762 22.3918 4.99313 22.3722 4.98969C20.0801 4.32515 17.8855 4.6293 16.7158 4.99365C16.6592 5.01124 16.608 5.0307 16.5566 5.04495C16.3524 5.10129 16.1643 5.17539 15.9738 5.25164C15.6011 5.4007 15.252 5.5812 14.9102 5.78445C14.7408 5.88514 14.5888 5.99232 14.43 6.11123C14.2733 6.22865 14.1393 6.33784 14.0037 6.47419C13.9304 6.54793 13.8634 6.58425 13.7937 6.66776L13.6028 6.88037C13.3619 7.18884 13.1415 7.48424 12.9639 7.83794C12.7813 8.20156 12.6453 8.599 12.5143 8.98465C12.3774 9.38728 12.2376 9.76402 12.0976 10.1643C12.0619 10.2665 12.0325 10.3604 12.0013 10.4541C11.6347 11.5543 11.2354 12.6434 10.8962 13.7522C10.773 14.1546 10.612 14.5442 10.4977 14.9503C10.3697 15.4056 10.1656 15.9791 10.0101 16.4449C9.91173 16.7398 9.52644 17.8933 9.45703 18.1012C9.55901 24.299 10.5327 25.1554 11.637 25.2665L12.1356 23.315Z" fill="url(#paint3_linear_1228_40452)"/>
</g>
<g id="Group_4">
<path id="Vector_5" fill-rule="evenodd" clip-rule="evenodd" d="M9.61803 6.47025C9.24046 4.9595 8.60345 3.75444 7.46498 2.65862L7.2377 2.465C6.96273 2.23397 6.6785 2.0298 6.36715 1.8443L5.95742 1.62248C5.76647 1.52703 5.56415 1.43689 5.35731 1.36295C4.4478 1.03791 2.60409 0.778532 1.63274 0.947713C1.1909 1.02474 1.58031 1.25093 1.34763 1.55045C1.06129 1.91922 0.960436 2.29731 0.951843 2.78067V2.89068C0.955394 3.00094 0.973351 3.15428 0.983745 3.2455C1.08094 4.1015 1.26865 4.92497 1.4474 5.76409C1.49458 5.98524 1.54748 6.2208 1.60428 6.44925C1.66011 6.67375 1.71028 6.90776 1.76935 7.14394C1.88579 7.60939 1.98643 8.04716 2.10262 8.51226C2.44556 9.88418 2.73787 11.2899 3.0607 12.6592L4.49118 18.8776C4.54186 19.1164 4.60453 19.3475 4.65192 19.5763C4.69977 19.8068 4.75478 20.0347 4.81127 20.2591C4.869 20.4885 4.92082 20.715 4.97973 20.9503C5.13137 21.557 5.51157 23.0633 5.74105 23.6097C5.75042 23.6754 5.79117 23.7562 5.8134 23.818C5.8402 23.8926 5.86253 23.9574 5.89402 24.0357C5.92536 24.1136 5.94363 24.1735 5.9765 24.2515C6.00964 24.3301 6.04304 24.4015 6.07185 24.4719C6.21407 24.8196 6.60085 25.5012 6.81449 25.8343L7.13227 26.2886C7.16124 26.3244 7.17354 26.3381 7.20215 26.3766C7.24563 26.4352 7.28648 26.4895 7.33356 26.5434L7.54375 26.7893C8.06123 27.377 8.644 28.1386 9.38628 28.3843C9.85214 28.5179 12.7726 28.4906 13.5085 27.5924C13.7225 27.2934 13.6904 27.0076 13.5959 26.6096C13.428 25.876 13.4855 25.7742 13.5008 25.5264C11.0732 24.8621 10.4925 20.2027 10.409 18.0999C10.2689 14.5772 10.6126 10.336 9.61803 6.47025Z" fill="url(#paint4_linear_1228_40452)"/>
<path id="Vector_6" fill-rule="evenodd" clip-rule="evenodd" d="M3.51433 0.969261C2.58496 0.866456 2.10906 0.852974 1.51347 0.966174C1.07164 1.04315 0.628513 1.25066 0.395837 1.55018C0.109443 1.91895 0.00859286 2.29704 0 2.7804V2.89041C0.00355034 3.00068 0.0215591 3.15401 0.0319014 3.24524C0.129098 4.10123 0.316854 4.92471 0.495555 5.76382C0.542738 5.98497 0.595685 6.22053 0.65249 6.44899C0.708267 6.67348 0.758487 6.90749 0.817505 7.14367C0.933997 7.60912 1.03459 8.0469 1.15083 8.51199C1.49377 9.88392 1.78603 11.2896 2.10885 12.6589L3.53933 18.8773C3.59007 19.1162 3.65274 19.3473 3.70007 19.576C3.74798 19.8066 3.80293 20.0345 3.85943 20.2588C3.91716 20.4883 3.96903 20.7147 4.02789 20.95C4.17958 21.5567 4.55977 23.063 4.78921 23.6094C4.79857 23.6751 4.83937 23.7559 4.8616 23.8178C4.88841 23.8923 4.91074 23.9572 4.94223 24.0355C4.97352 24.1134 4.99183 24.1732 5.02466 24.2512C5.0578 24.3298 5.09119 24.4013 5.12001 24.4717C5.26223 24.8193 5.64901 25.5009 5.8627 25.8341L6.18048 26.2884C6.2094 26.3241 6.22174 26.3378 6.2503 26.3763C6.29383 26.435 6.33469 26.4892 6.38172 26.5432L6.59196 26.7891C7.16845 27.4438 8.08233 28.1358 9.0932 28.3185C11.1635 28.6928 13.4503 28.4899 13.6127 27.403C3.27372 26.9504 11.0331 7.80079 3.51433 0.969261Z" fill="url(#paint5_linear_1228_40452)"/>
</g>
</g>
<g id="Group_5">
<g id="Group_6">
<path id="Vector_7" fill-rule="evenodd" clip-rule="evenodd" d="M42.9531 12.881C45.744 13.906 42.8905 20.1576 42.1861 21.7728C40.6086 25.3901 36.8669 29.1702 34.9201 29.9083C34.5235 30.0652 34.1986 30.2778 34.0821 30.6984C33.8017 31.7083 34.703 31.894 35.4954 31.8962C40.4711 31.8962 45.8636 26.8152 48.2124 22.5421C49.6134 19.9937 50.1517 17.0876 48.8336 14.4556C47.6346 12.0612 44.1244 10.5728 41.6555 10.5728C40.5184 10.5728 39.9075 10.9201 39.8484 11.435C39.7256 12.5037 40.1345 13.5223 40.8842 13.834C41.7596 14.1978 42.9043 13.669 42.9531 12.881Z" fill="url(#paint6_linear_1228_40452)"/>
<path id="Vector_8" fill-rule="evenodd" clip-rule="evenodd" d="M40.7851 13.7872C41.8243 14.2445 43.0039 13.6921 42.992 12.585C42.9792 11.3873 45.9381 11.0142 47.1916 13.9541C49.9684 20.4662 41.8597 29.7522 35.2875 30.1473C34.4002 30.2006 34.0451 30.998 34.03 31.0591C33.9751 32.0559 35.578 32.0155 36.5977 31.9918C41.5735 31.9918 46.8265 27.538 49.1753 23.2651C50.5761 20.7166 51.2541 17.1832 49.936 14.5513C49.2341 13.1497 47.9207 11.9233 46.2979 11.215C44.9217 10.6143 43.4087 10.3172 42.1931 10.3325C40.8539 10.3493 39.8756 10.7454 39.8388 11.5321C39.7783 12.826 40.2049 13.517 40.7851 13.7872Z" fill="url(#paint7_linear_1228_40452)"/>
</g>
<g id="Group_7">
<path id="Vector_9" fill-rule="evenodd" clip-rule="evenodd" d="M37.8019 21.3886C38.024 20.8892 38.3225 18.6493 38.4337 18.1002C38.4865 17.8388 38.5489 17.5622 38.6296 17.3204C38.7911 16.8361 39.0056 16.4062 39.1373 15.8596C39.1991 15.6032 39.2585 15.3032 39.2565 14.986C39.2555 14.835 39.2874 14.6983 39.2731 14.5251C39.2502 14.2491 39.2398 13.362 39.2398 13.0691C39.2398 12.5008 39.1785 11.982 38.5847 11.7556C38.3004 11.6471 38.0639 11.6616 37.7163 11.6825C36.7877 11.7385 35.3264 12.4671 34.5224 12.9394C34.2161 13.1194 33.9231 13.3201 33.632 13.5211C33.2687 13.7718 32.615 14.3226 32.3267 14.6807C32.289 14.7276 32.2581 14.7575 32.216 14.8097C32.1749 14.8609 32.1384 14.9038 32.1014 14.9519C31.3276 15.959 31.2965 16.8715 31.4975 18.1068C31.5961 18.7124 31.9462 19.3291 32.3369 19.7153L33.0816 20.4598C33.1679 20.5462 33.2416 20.6238 33.3295 20.7084L34.0429 21.3463C34.0915 21.384 34.0792 21.367 34.1215 21.4226C34.1837 21.4556 34.2658 21.5321 34.3247 21.5791C34.4006 21.6395 34.4651 21.6936 34.5446 21.7529C34.825 21.9621 35.1617 22.1999 35.4796 22.3585C35.5691 22.4032 35.6461 22.4465 35.7328 22.4819C35.8276 22.5206 35.9279 22.5541 36.0236 22.5848C37.0907 22.9266 37.5766 22.1263 37.8019 21.3886Z" fill="url(#paint8_linear_1228_40452)"/>
<path id="Vector_10" fill-rule="evenodd" clip-rule="evenodd" d="M37.8024 21.3886C38.0245 20.8892 38.323 18.6493 38.4342 18.1002C38.4871 17.8388 38.5495 17.5622 38.6301 17.3204C38.7917 16.8361 39.0062 16.4062 39.1379 15.8596C39.1996 15.6032 39.2591 15.3032 39.2571 14.986C39.2561 14.835 39.288 14.6983 39.2737 14.5251C39.2508 14.2491 39.2403 13.362 39.2403 13.0691C39.2403 12.5008 39.179 11.982 38.5852 11.7556C38.3009 11.6471 38.0644 11.6616 37.7168 11.6825C31.8602 13.6932 33.156 21.3337 36.0242 22.5848C37.0912 22.9266 37.5772 22.1263 37.8024 21.3886Z" fill="url(#paint9_linear_1228_40452)"/>
</g>
<g id="Group_8">
<path id="Vector_11" fill-rule="evenodd" clip-rule="evenodd" d="M40.1949 2.57885C40.6815 2.57885 40.7386 3.72108 40.788 4.06264C40.9192 4.96885 41.1863 5.795 41.7223 6.49262C42.7652 7.84972 44.856 8.33272 46.3497 7.44648C47.1411 6.97685 47.7117 6.30064 47.9766 5.41732C48.4593 3.80748 47.678 2.2461 46.5418 1.15805C45.0922 -0.107112 42.381 -0.229367 40.559 0.282552C39.7888 0.498917 39.1966 0.789941 38.5841 1.24264C38.2926 1.45802 37.6864 1.90557 37.666 2.27666C37.6231 3.06108 39.65 2.57885 40.1949 2.57885Z" fill="url(#paint10_linear_1228_40452)"/>
<path id="Vector_12" fill-rule="evenodd" clip-rule="evenodd" d="M40.1947 2.57846C40.6814 2.57846 40.7384 3.7207 40.7878 4.06225C40.919 4.96846 41.1861 5.79461 41.7221 6.49223C42.7651 7.84934 45.3122 8.71377 47.2285 6.73957C42.7529 5.84298 44.5404 2.10298 41.8785 0.92205C41.1166 0.583996 39.3829 0.651812 38.5839 1.24225C38.2924 1.45764 37.6862 1.90524 37.6658 2.27627C37.6229 3.06075 39.6498 2.57846 40.1947 2.57846Z" fill="url(#paint11_linear_1228_40452)"/>
</g>
</g>
</g>
<defs>
<linearGradient id="paint0_linear_1228_40452" x1="34.5526" y1="29.1234" x2="15.7579" y2="17.8082" gradientUnits="userSpaceOnUse">
<stop stop-color="#989898"/>
<stop offset="0.439216" stop-color="#6A6A6A"/>
<stop offset="1" stop-color="#3B3B3B"/>
</linearGradient>
<linearGradient id="paint1_linear_1228_40452" x1="34.3591" y1="29.2757" x2="15.5048" y2="17.9142" gradientUnits="userSpaceOnUse">
<stop stop-color="#989898"/>
<stop offset="0.439216" stop-color="#6A6A6A"/>
<stop offset="1" stop-color="#3B3B3B"/>
</linearGradient>
<linearGradient id="paint2_linear_1228_40452" x1="19.1714" y1="20.4086" x2="11.2241" y2="18.7719" gradientUnits="userSpaceOnUse">
<stop stop-color="#989898"/>
<stop offset="0.439216" stop-color="#646464"/>
<stop offset="1" stop-color="#302F2F"/>
</linearGradient>
<linearGradient id="paint3_linear_1228_40452" x1="20.1999" y1="19.9693" x2="9.49171" y2="19.5502" gradientUnits="userSpaceOnUse">
<stop stop-color="#989898"/>
<stop offset="0.439216" stop-color="#5F5F5F"/>
<stop offset="1" stop-color="#262626"/>
</linearGradient>
<linearGradient id="paint4_linear_1228_40452" x1="5.47231" y1="23.7283" x2="21.9129" y2="26.3432" gradientUnits="userSpaceOnUse">
<stop stop-color="#383838"/>
<stop offset="0.568627" stop-color="#9B9B9B"/>
<stop offset="1" stop-color="white"/>
</linearGradient>
<linearGradient id="paint5_linear_1228_40452" x1="5.29099" y1="18.1326" x2="23.7885" y2="21.7652" gradientUnits="userSpaceOnUse">
<stop stop-color="#424242"/>
<stop offset="0.529412" stop-color="#898989"/>
<stop offset="1" stop-color="#D1D1D1"/>
</linearGradient>
<linearGradient id="paint6_linear_1228_40452" x1="45.7083" y1="18.0922" x2="11.2924" y2="25.0997" gradientUnits="userSpaceOnUse">
<stop stop-color="#E85B28"/>
<stop offset="1" stop-color="white"/>
</linearGradient>
<linearGradient id="paint7_linear_1228_40452" x1="40.2232" y1="13.1775" x2="64.2799" y2="6.53139" gradientUnits="userSpaceOnUse">
<stop stop-color="#F37100"/>
<stop offset="1" stop-color="#FFE1C8"/>
</linearGradient>
<linearGradient id="paint8_linear_1228_40452" x1="32.2573" y1="17.0655" x2="43.5318" y2="24.6006" gradientUnits="userSpaceOnUse">
<stop stop-color="#EB3D00"/>
<stop offset="1" stop-color="#FEFEFE"/>
</linearGradient>
<linearGradient id="paint9_linear_1228_40452" x1="31.8782" y1="19.9406" x2="50.9701" y2="28.1719" gradientUnits="userSpaceOnUse">
<stop stop-color="#DD4929"/>
<stop offset="1" stop-color="white"/>
</linearGradient>
<linearGradient id="paint10_linear_1228_40452" x1="42.8905" y1="4.57059" x2="42.3201" y2="-2.90669" gradientUnits="userSpaceOnUse">
<stop stop-color="#009A4D"/>
<stop offset="0.729412" stop-color="#83DDB0"/>
<stop offset="1" stop-color="#FEFEFE"/>
</linearGradient>
<linearGradient id="paint11_linear_1228_40452" x1="45.343" y1="4.4603" x2="43.1677" y2="-4.363" gradientUnits="userSpaceOnUse">
<stop stop-color="#00924A"/>
<stop offset="0.631373" stop-color="#7FC7A3"/>
<stop offset="1" stop-color="#FEFEFE"/>
</linearGradient>
</defs>
</svg>
